<svg width="23" height="22" viewBox="0 0 23 22" fill="none" xmlns="http://www.w3.org/2000/svg">
<path d="M19.7656 16.5555C20.2598 16.7918 20.7052 17.0818 21.1021 17.4256C21.4989 17.7693 21.8358 18.1525 22.1128 18.575C22.3898 18.9975 22.6069 19.4559 22.7642 19.95C22.9214 20.4442 23 20.9526 23 21.4754H21.5625C21.5625 20.9096 21.4502 20.3761 21.2256 19.8748C21.001 19.3735 20.694 18.9367 20.3047 18.5643C19.9154 18.1919 19.4549 17.8947 18.9233 17.6727C18.3918 17.4507 17.834 17.3432 17.25 17.3504C16.651 17.3504 16.0933 17.4578 15.5767 17.6727C15.0601 17.8875 14.6034 18.1811 14.2065 18.5535C13.8097 18.9259 13.499 19.3664 13.2744 19.8748C13.0498 20.3833 12.9375 20.9168 12.9375 21.4754H11.5C11.5 20.9526 11.5749 20.4442 11.7246 19.95C11.8743 19.4559 12.0915 18.9975 12.376 18.575C12.6605 18.1525 13.0011 17.7693 13.3979 17.4256C13.7948 17.0818 14.2402 16.7918 14.7344 16.5555C14.1729 16.1688 13.7349 15.6854 13.4204 15.1053C13.106 14.5252 12.945 13.8986 12.9375 13.2254C12.9375 12.6596 13.0498 12.1261 13.2744 11.6248C13.499 11.1235 13.806 10.6867 14.1953 10.3143C14.5846 9.94187 15.0413 9.64467 15.5654 9.42267C16.0895 9.20066 16.651 9.09324 17.25 9.1004C17.8415 9.1004 18.3993 9.20782 18.9233 9.42267C19.4474 9.63751 19.9041 9.93113 20.2935 10.3035C20.6828 10.6759 20.9935 11.1164 21.2256 11.6248C21.4577 12.1333 21.57 12.6668 21.5625 13.2254C21.5625 13.8986 21.4053 14.5252 21.0908 15.1053C20.7764 15.6854 20.3346 16.1688 19.7656 16.5555ZM17.25 15.9754C17.6468 15.9754 18.0174 15.9038 18.3618 15.7606C18.7062 15.6173 19.0132 15.4204 19.2827 15.1697C19.5522 14.9191 19.7581 14.629 19.9004 14.2996C20.0426 13.9702 20.1175 13.6121 20.125 13.2254C20.125 12.8458 20.0501 12.4914 19.9004 12.1619C19.7507 11.8325 19.5448 11.5389 19.2827 11.2811C19.0207 11.0233 18.7174 10.8263 18.373 10.6902C18.0286 10.5542 17.6543 10.4826 17.25 10.4754C16.8532 10.4754 16.4826 10.547 16.1382 10.6902C15.7938 10.8335 15.4868 11.0304 15.2173 11.2811C14.9478 11.5317 14.7419 11.8218 14.5996 12.1512C14.4574 12.4806 14.3825 12.8387 14.375 13.2254C14.375 13.605 14.4499 13.9595 14.5996 14.2889C14.7493 14.6183 14.9552 14.9119 15.2173 15.1697C15.4793 15.4276 15.7826 15.6245 16.127 15.7606C16.4714 15.8966 16.8457 15.9682 17.25 15.9754ZM11.5 16.8348C11.2604 17.0998 11.0433 17.3755 10.8486 17.6619C10.654 17.9484 10.4818 18.2563 10.332 18.5858C9.93522 18.1919 9.45605 17.8875 8.89453 17.6727C8.33301 17.4578 7.764 17.3504 7.1875 17.3504H2.875V3.6004H1.4375V18.7254H10.2759C10.1711 18.9474 10.085 19.173 10.0176 19.4022C9.9502 19.6313 9.89404 19.8641 9.84912 20.1004H0V2.2254H2.875V0.850403H7.1875C7.84635 0.850403 8.479 0.947083 9.08545 1.14044C9.69189 1.3338 10.2572 1.62384 10.7812 2.01056C11.2979 1.62384 11.8594 1.3338 12.4658 1.14044C13.0723 0.947083 13.7087 0.850403 14.375 0.850403H18.6875V2.2254H21.5625V9.1004C21.1283 8.6922 20.6491 8.35203 20.125 8.0799V3.6004H18.6875V7.56427C18.4479 7.49982 18.2083 7.45327 17.9688 7.42462C17.7292 7.39598 17.4896 7.38165 17.25 7.38165V2.2254H14.375C13.8509 2.2254 13.3418 2.31134 12.8477 2.48322C12.3535 2.65509 11.9043 2.90932 11.5 3.24591V16.8348ZM10.0625 16.6951V3.24591C9.6582 2.91648 9.20898 2.66583 8.71484 2.49396C8.2207 2.32208 7.71159 2.23256 7.1875 2.2254H4.3125V15.9754H7.1875C7.68913 15.9754 8.18327 16.0363 8.66992 16.158C9.15658 16.2798 9.62077 16.4588 10.0625 16.6951Z" fill="#290242" fill-opacity="0.5"/>
</svg>
