<svg width="25" height="25" viewBox="0 0 25 25" fill="none" xmlns="http://www.w3.org/2000/svg">
<g clip-path="url(#clip0_1_70)">
<path d="M10.7788 0.950806V14.8586H14.2212V0.950806H10.7788ZM4.01416 4.47217C1.84258 6.6482 0.5 9.65489 0.5 12.9754C0.5 19.6164 5.87258 25 12.5 25C19.1274 25 24.5 19.6164 24.5 12.9754C24.5 9.65489 23.1574 6.6482 20.9858 4.47217L18.5688 6.89412C20.122 8.45046 21.0825 10.6007 21.0825 12.9754C21.0825 17.7247 17.2396 21.5755 12.5 21.5755C7.76038 21.5755 3.91748 17.7247 3.91748 12.9754C3.91748 10.6007 4.87798 8.45046 6.43116 6.89412L4.01416 4.47217Z" fill="#290242"/>
</g>
<defs>
<clipPath id="clip0_1_70">
<rect width="24" height="24.0492" fill="white" transform="translate(0.5 0.950806)"/>
</clipPath>
</defs>
</svg>
