<svg width="24" height="25" viewBox="0 0 24 25" fill="none" xmlns="http://www.w3.org/2000/svg">
<path d="M21 21.8333L15 15.8333M3 10.8333C3 11.7526 3.18106 12.6628 3.53284 13.5121C3.88463 14.3614 4.40024 15.1331 5.05025 15.7831C5.70026 16.4331 6.47194 16.9487 7.32122 17.3005C8.1705 17.6523 9.08075 17.8333 10 17.8333C10.9193 17.8333 11.8295 17.6523 12.6788 17.3005C13.5281 16.9487 14.2997 16.4331 14.9497 15.7831C15.5998 15.1331 16.1154 14.3614 16.4672 13.5121C16.8189 12.6628 17 11.7526 17 10.8333C17 9.91408 16.8189 9.00382 16.4672 8.15454C16.1154 7.30527 15.5998 6.53359 14.9497 5.88358C14.2997 5.23357 13.5281 4.71795 12.6788 4.36617C11.8295 4.01439 10.9193 3.83333 10 3.83333C9.08075 3.83333 8.1705 4.01439 7.32122 4.36617C6.47194 4.71795 5.70026 5.23357 5.05025 5.88358C4.40024 6.53359 3.88463 7.30527 3.53284 8.15454C3.18106 9.00382 3 9.91408 3 10.8333Z" stroke="black" stroke-width="2" stroke-linecap="round" stroke-linejoin="round"/>
</svg>
